# xmcd CD database file
#
# Track frame offsets:
#	150
#	23349
#	42992
#	61805
#	84190
#	101712
#	123262
#	143259
#	167321
#	186046
#	206470
#	236422
#
# Disc length: 3492 seconds
#
# Revision: 3
# Processed by: cddbd v1.5.2PL0 Copyright (c) Steve Scherf et al.
# Submitted via: CDex 1.70beta2
#
DISCID=820da20c
DTITLE=May'n - If You...
DYEAR=2011
DGENRE=Anime
TTITLE0=Disco☆Galaxxxy
TTITLE1=ユズレナイ想ヒ
TTITLE2=シンジテミル
TTITLE3=もしも君が願うのなら
TTITLE4=HERO
TTITLE5=0 -Zero-
TTITLE6=Ready Go!
TTITLE7=My Lovely Thing
TTITLE8=モザイカ
TTITLE9=Swan
TTITLE10=愛は降る星のごとく
TTITLE11=Phonic Nation
EXTD=YEAR: 2011
EXTT0=
EXTT1=
EXTT2=
EXTT3=
EXTT4=
EXTT5=
EXTT6=
EXTT7=
EXTT8=
EXTT9=
EXTT10=
EXTT11=
PLAYORDER=
